<?xml version="1.0" encoding="UTF-8"?>
<svg width="5423px" height="1167px" viewBox="0 0 5423 1167" version="1.1" xmlns="http://www.w3.org/2000/svg" xmlns:xlink="http://www.w3.org/1999/xlink">
    <title>Inference-horizontal-light</title>
    <g id="Inference-horizontal-light" stroke="none" stroke-width="1" fill="none" fill-rule="evenodd">
        <g id="Inference" transform="translate(1289.680000, 275.432941)" fill="#009191" fill-rule="nonzero">
            <path d="M100.8,57.0070588 L100.8,559.567059 L-2.27373675e-13,559.567059 L-2.27373675e-13,57.0070588 L100.8,57.0070588 Z M421.2,154.927059 C468.72,154.927059 507.12,169.927059 536.4,199.927059 C565.68,229.927059 580.32,271.807059 580.32,325.567059 L580.32,559.567059 L479.52,559.567059 L479.52,339.247059 C479.52,307.567059 471.6,283.207059 455.76,266.167059 C439.92,249.127059 418.32,240.607059 390.96,240.607059 C363.12,240.607059 341.16,249.127059 325.08,266.167059 C309,283.207059 300.96,307.567059 300.96,339.247059 L300.96,559.567059 L200.16,559.567059 L200.16,160.687059 L300.96,160.687059 L300.96,210.367059 C314.4,193.087059 331.56,179.527059 352.44,169.687059 C373.32,159.847059 396.24,154.927059 421.2,154.927059 Z M858.96,243.487059 L789.12,243.487059 L789.12,559.567059 L686.88,559.567059 L686.88,243.487059 L641.52,243.487059 L641.52,160.687059 L686.88,160.687059 L686.88,140.527059 C686.88,91.5670588 700.8,55.5670588 728.64,32.5270588 C756.48,9.48705882 798.48,-1.31294118 854.64,0.127058824 L854.64,85.0870588 C830.16,84.6070588 813.12,88.6870588 803.52,97.3270588 C793.92,105.967059 789.12,121.567059 789.12,144.127059 L789.12,160.687059 L858.96,160.687059 L858.96,243.487059 Z M1295.28,351.487059 C1295.28,365.887059 1294.32,378.847059 1292.4,390.367059 L1000.8,390.367059 C1003.2,419.167059 1013.28,441.727059 1031.04,458.047059 C1048.8,474.367059 1070.64,482.527059 1096.56,482.527059 C1134,482.527059 1160.64,466.447059 1176.48,434.287059 L1285.2,434.287059 C1273.68,472.687059 1251.6,504.247059 1218.96,528.967059 C1186.32,553.687059 1146.24,566.047059 1098.72,566.047059 C1060.32,566.047059 1025.88,557.527059 995.4,540.487059 C964.92,523.447059 941.16,499.327059 924.12,468.127059 C907.08,436.927059 898.56,400.927059 898.56,360.127059 C898.56,318.847059 906.96,282.607059 923.76,251.407059 C940.56,220.207059 964.08,196.207059 994.32,179.407059 C1024.56,162.607059 1059.36,154.207059 1098.72,154.207059 C1136.64,154.207059 1170.6,162.367059 1200.6,178.687059 C1230.6,195.007059 1253.88,218.167059 1270.44,248.167059 C1287,278.167059 1295.28,312.607059 1295.28,351.487059 Z M1190.88,322.687059 C1190.4,296.767059 1181.04,276.007059 1162.8,260.407059 C1144.56,244.807059 1122.24,237.007059 1095.84,237.007059 C1070.88,237.007059 1049.88,244.567059 1032.84,259.687059 C1015.8,274.807059 1005.36,295.807059 1001.52,322.687059 L1190.88,322.687059 Z M1469.52,222.607059 C1482.48,201.487059 1499.4,184.927059 1520.28,172.927059 C1541.16,160.927059 1565.04,154.927059 1591.92,154.927059 L1591.92,260.767059 L1565.28,260.767059 C1533.6,260.767059 1509.72,268.207059 1493.64,283.087059 C1477.56,297.967059 1469.52,323.887059 1469.52,360.847059 L1469.52,559.567059 L1368.72,559.567059 L1368.72,160.687059 L1469.52,160.687059 L1469.52,222.607059 Z M2030.4,351.487059 C2030.4,365.887059 2029.44,378.847059 2027.52,390.367059 L1735.92,390.367059 C1738.32,419.167059 1748.4,441.727059 1766.16,458.047059 C1783.92,474.367059 1805.76,482.527059 1831.68,482.527059 C1869.12,482.527059 1895.76,466.447059 1911.6,434.287059 L2020.32,434.287059 C2008.8,472.687059 1986.72,504.247059 1954.08,528.967059 C1921.44,553.687059 1881.36,566.047059 1833.84,566.047059 C1795.44,566.047059 1761,557.527059 1730.52,540.487059 C1700.04,523.447059 1676.28,499.327059 1659.24,468.127059 C1642.2,436.927059 1633.68,400.927059 1633.68,360.127059 C1633.68,318.847059 1642.08,282.607059 1658.88,251.407059 C1675.68,220.207059 1699.2,196.207059 1729.44,179.407059 C1759.68,162.607059 1794.48,154.207059 1833.84,154.207059 C1871.76,154.207059 1905.72,162.367059 1935.72,178.687059 C1965.72,195.007059 1989,218.167059 2005.56,248.167059 C2022.12,278.167059 2030.4,312.607059 2030.4,351.487059 Z M1926,322.687059 C1925.52,296.767059 1916.16,276.007059 1897.92,260.407059 C1879.68,244.807059 1857.36,237.007059 1830.96,237.007059 C1806,237.007059 1785,244.567059 1767.96,259.687059 C1750.92,274.807059 1740.48,295.807059 1736.64,322.687059 L1926,322.687059 Z M2324.88,154.927059 C2372.4,154.927059 2410.8,169.927059 2440.08,199.927059 C2469.36,229.927059 2484,271.807059 2484,325.567059 L2484,559.567059 L2383.2,559.567059 L2383.2,339.247059 C2383.2,307.567059 2375.28,283.207059 2359.44,266.167059 C2343.6,249.127059 2322,240.607059 2294.64,240.607059 C2266.8,240.607059 2244.84,249.127059 2228.76,266.167059 C2212.68,283.207059 2204.64,307.567059 2204.64,339.247059 L2204.64,559.567059 L2103.84,559.567059 L2103.84,160.687059 L2204.64,160.687059 L2204.64,210.367059 C2218.08,193.087059 2235.24,179.527059 2256.12,169.687059 C2277,159.847059 2299.92,154.927059 2324.88,154.927059 Z M2553.84,360.127059 C2553.84,318.847059 2562.24,282.727059 2579.04,251.767059 C2595.84,220.807059 2619.12,196.807059 2648.88,179.767059 C2678.64,162.727059 2712.72,154.207059 2751.12,154.207059 C2800.56,154.207059 2841.48,166.567059 2873.88,191.287059 C2906.28,216.007059 2928,250.687059 2939.04,295.327059 L2830.32,295.327059 C2824.56,278.047059 2814.84,264.487059 2801.16,254.647059 C2787.48,244.807059 2770.56,239.887059 2750.4,239.887059 C2721.6,239.887059 2698.8,250.327059 2682,271.207059 C2665.2,292.087059 2656.8,321.727059 2656.8,360.127059 C2656.8,398.047059 2665.2,427.447059 2682,448.327059 C2698.8,469.207059 2721.6,479.647059 2750.4,479.647059 C2791.2,479.647059 2817.84,461.407059 2830.32,424.927059 L2939.04,424.927059 C2928,468.127059 2906.16,502.447059 2873.52,527.887059 C2840.88,553.327059 2800.08,566.047059 2751.12,566.047059 C2712.72,566.047059 2678.64,557.527059 2648.88,540.487059 C2619.12,523.447059 2595.84,499.447059 2579.04,468.487059 C2562.24,437.527059 2553.84,401.407059 2553.84,360.127059 Z M3384,351.487059 C3384,365.887059 3383.04,378.847059 3381.12,390.367059 L3089.52,390.367059 C3091.92,419.167059 3102,441.727059 3119.76,458.047059 C3137.52,474.367059 3159.36,482.527059 3185.28,482.527059 C3222.72,482.527059 3249.36,466.447059 3265.2,434.287059 L3373.92,434.287059 C3362.4,472.687059 3340.32,504.247059 3307.68,528.967059 C3275.04,553.687059 3234.96,566.047059 3187.44,566.047059 C3149.04,566.047059 3114.6,557.527059 3084.12,540.487059 C3053.64,523.447059 3029.88,499.327059 3012.84,468.127059 C2995.8,436.927059 2987.28,400.927059 2987.28,360.127059 C2987.28,318.847059 2995.68,282.607059 3012.48,251.407059 C3029.28,220.207059 3052.8,196.207059 3083.04,179.407059 C3113.28,162.607059 3148.08,154.207059 3187.44,154.207059 C3225.36,154.207059 3259.32,162.367059 3289.32,178.687059 C3319.32,195.007059 3342.6,218.167059 3359.16,248.167059 C3375.72,278.167059 3384,312.607059 3384,351.487059 Z M3279.6,322.687059 C3279.12,296.767059 3269.76,276.007059 3251.52,260.407059 C3233.28,244.807059 3210.96,237.007059 3184.56,237.007059 C3159.6,237.007059 3138.6,244.567059 3121.56,259.687059 C3104.52,274.807059 3094.08,295.807059 3090.24,322.687059 L3279.6,322.687059 Z" id="形状"></path>
        </g>
        <g id="编组" transform="translate(572.000000, 333.000000)">
            <path d="M76.8492646,141.786979 C78.0973607,141.806026 78.5740593,141.816167 79.0421282,141.829399 C80.2434181,141.869233 80.7304131,141.889147 81.2094854,141.912121 C82.509976,141.981254 82.9950834,142.010797 83.4722906,142.043126 C84.7627848,142.136928 85.2423162,142.175353 85.7151816,142.216327 C87.0118886,142.334825 87.4990845,142.382905 87.9803936,142.433473 C89.3270714,142.581349 89.8163164,142.638631 90.3016183,142.698455 C91.5683755,142.859914 92.0627,142.926323 92.5530211,142.995132 C93.955135,143.198317 94.4534242,143.274065 94.9502037,143.352508 C96.2134234,143.556886 96.7215927,143.642352 97.2172305,143.728523 L99.2108332,144.089022 L100.520625,144.340482 L101.621394,144.560722 L102.885303,144.823439 L103.96406,145.055866 L105.268262,145.346792 L105.408675,145.38009 L105.309837,145.624234 C103.654172,149.845236 104.244652,156.774682 110.205561,166.150802 L110.662748,166.858594 C115.252489,173.854584 122.644335,182.582135 131.898877,192.321569 C146.56445,207.755544 166.013558,225.898951 185.928749,243.847242 L189.916722,247.433438 C201.89161,258.179058 213.93067,268.784727 225.101331,278.623062 C227.200384,280.47176 229.268535,282.293242 231.299514,284.083301 C264.034428,312.935115 319.53595,351.258851 372.364415,367.675804 L374.991752,368.475057 L376.344743,368.872906 L377.646203,369.246747 L378.887983,369.595234 L380.377733,370.002579 L381.587963,370.324781 L382.965062,370.681795 L384.175245,370.986988 L385.594667,371.334625 L386.809369,371.62317 L388.294629,371.964606 L389.473624,372.226611 L390.809511,372.513713 L392.039426,372.768743 L393.451727,373.05038 C394.73829,373.301522 396.021266,373.536927 397.300283,373.756177 L398.585597,373.971273 C399.141089,374.061961 399.695787,374.14956 400.249678,374.234039 C401.868333,374.473486 402.402973,374.548192 402.936733,374.620118 C404.382857,374.80909 404.917874,374.874799 405.45204,374.937631 C406.988182,375.111334 407.521001,375.167094 408.052838,375.219949 C409.582133,375.364761 410.102613,375.40956 410.622153,375.451534 C412.112101,375.565009 412.648083,375.601086 413.18309,375.634079 C414.693136,375.719887 415.23543,375.74567 415.776578,375.768216 C417.193105,375.820688 417.725463,375.83553 418.256658,375.847159 C419.757705,375.872235 420.277242,375.875828 420.795694,375.876328 C423.119911,375.8635 424.385102,375.831981 425.648929,375.779997 L426.783717,375.727498 C427.306534,375.700617 427.827991,375.670065 428.348119,375.63581 C429.860338,375.527072 430.368263,375.484753 430.874951,375.439192 C432.244087,375.308562 432.75667,375.25395 433.267901,375.195882 C434.776819,375.014667 435.279083,374.948156 435.779958,374.878328 C437.213486,374.66935 437.708677,374.591039 438.202516,374.509382 C439.619386,374.265882 440.118149,374.173764 440.61547,374.078145 L441.614656,373.877529 C442.34647,373.729123 442.707588,373.651432 443.067932,373.571862 C444.43606,373.260434 444.920033,373.143688 445.402594,373.023433 C446.831078,372.656686 447.311111,372.52641 447.789657,372.392637 C449.223927,371.980354 449.706761,371.834101 450.187998,371.684205 C451.472165,371.274986 451.950589,371.115363 452.427377,370.951949 C453.873478,370.443527 454.342161,370.270759 454.809291,370.094347 C456.132085,369.583876 456.606569,369.39275 457.07937,369.197641 C458.359916,368.658506 458.827147,368.453692 459.292651,368.244864 C460.659587,367.618501 461.121429,367.398042 461.581572,367.173572 C462.823872,366.556342 463.277161,366.322608 463.728709,366.08477 C465.028037,365.387189 465.474159,365.138552 465.918536,364.885838 C467.547114,363.941219 468.208986,363.535561 468.935353,363.077833 L474.690652,359.10928 L474.756663,359.052302 L474.394975,359.80531 C469.968944,368.896021 465.010356,377.678517 459.559922,386.111923 L458.592984,387.596539 L457.890572,388.660902 L456.800663,390.289698 L455.693347,391.917011 C454.675068,393.39992 453.684549,394.811112 452.680129,396.211293 L451.268942,398.158554 L448.972809,401.245803 L446.60447,404.330258 L444.177477,407.391931 L441.776031,410.328152 L439.240649,413.333414 C393.174391,467.03037 324.942947,501 248.781339,501 C193.312655,501 142.048536,482.984192 100.517609,452.477367 C58.0243327,421.263642 25.7152092,376.97928 9.51947643,325.541064 C6.81212332,312.35023 4.67810101,299.836699 3.12554151,288.011713 L2.96988581,286.813517 L2.80048551,285.490883 L2.62531077,284.07738 L2.4837105,282.902375 L2.34680206,281.729606 L2.18945981,280.367715 L2.03694849,278.99778 C1.85303875,277.317484 1.6815396,275.651726 1.52376365,274.014111 L1.41604214,272.876413 L1.31424436,271.755872 C0.375787538,261.26509 -0.0528793836,251.650562 0.00519123955,242.602284 L0.0197050745,241.028704 L0.0587897683,238.777158 L0.11047813,236.807956 L0.190523819,234.550004 L0.280576348,232.549537 L0.38650886,230.595414 L0.522522723,228.470162 L0.672066218,226.456544 L0.836767798,224.506238 L1.01220773,222.651037 L1.22051623,220.6711 L1.82333027,215.84466 L2.06683339,214.162203 L2.66635401,210.469234 L2.86364295,209.365729 L4.0902953,203.392369 L5.75522536,196.899627 L7.80362601,190.462475 C8.16824735,189.445396 8.28944712,189.114916 8.41174064,188.787283 C8.90615085,187.463216 9.42275904,186.165202 9.95407542,184.911395 C10.2094709,184.312684 10.3655912,183.95284 10.5179322,183.608074 L11.7205488,181.006236 L14.5443553,175.652508 L18.0203695,170.170821 L22.0441669,164.943793 C25.4391664,161.297441 26.1378188,160.54913 26.3790477,160.301845 L31.2888399,156.014364 L37.2295804,151.826651 C39.0812452,150.718783 39.4497004,150.508144 39.8104893,150.307758 C40.7971328,149.770535 41.1729302,149.571581 41.5425385,149.381644 C42.4783002,148.909718 42.8603193,148.722422 43.2349583,148.544244 C44.2800587,148.058031 44.6692335,147.882442 45.0512817,147.715547 C46.0216328,147.300241 46.4171164,147.136148 46.8057111,146.980153 C47.8247007,146.580262 48.2181888,146.430749 48.6020118,146.28984 C49.7210061,145.889672 50.1234876,145.750804 50.5182107,145.619571 C51.5138553,145.296212 51.9224539,145.168221 52.3231683,145.047405 C53.430813,144.722773 53.8412404,144.607162 54.241483,144.498985 C55.3771999,144.201312 55.7976921,144.09583 56.210363,143.996857 C57.2447376,143.755868 57.6718568,143.660804 58.0904651,143.57199 C59.2652354,143.331801 59.6948091,143.248476 60.1144634,143.171342 C61.2509403,142.970451 61.6794302,142.898948 62.0985194,142.833025 C63.2589261,142.658407 63.7024864,142.595993 64.1365963,142.538978 C65.3183856,142.391596 65.771494,142.339429 66.2157871,142.292313 C67.3442065,142.179444 67.7893516,142.138871 68.2245637,142.102896 C69.4695531,142.008167 69.9171817,141.978051 70.3503701,141.952502 C72.2780095,141.853327 73.3742866,141.816889 74.4732082,141.799517 L76.8492646,141.786979 Z" id="形状" fill="#FFCC66"></path>
            <path d="M248.197031,0 C303.659218,0 354.917826,18.0115873 396.446168,48.5119142 C439.041171,79.7956468 471.405005,124.211911 487.567569,175.808861 C499.890535,219.320004 502.626445,256.051025 497.653691,285.226619 C492.557549,315.12614 479.331665,336.885855 459.932034,349.058825 C440.857662,361.027699 416.819581,361.434426 391.567218,355.630753 C393.36559,351.049239 392.702791,343.877152 386.315622,334.141406 C381.725881,327.145416 374.334035,318.417865 365.079493,308.678431 C350.41392,293.244456 330.964812,275.101049 311.049621,257.152758 L307.061648,253.566562 C295.08676,242.820942 283.0477,232.215273 271.877039,222.376938 C269.777987,220.52824 267.709835,218.706758 265.678856,216.916699 C232.762784,187.905217 176.828647,149.31998 123.73782,133.053842 L121.972748,132.520847 L120.685462,132.142166 L119.332396,131.753315 L118.062788,131.397115 L116.647773,131.010131 L115.414414,130.681533 L114.013554,130.318267 L112.803104,130.013006 L111.383643,129.66536 L110.164015,129.375664 L108.721618,129.043945 L107.523975,128.777596 L106.18279,128.489283 C105.356486,128.31487 104.531249,128.146724 103.70748,127.98502 L102.270801,127.709199 L100.950453,127.467015 C100.386813,127.365904 99.824079,127.267918 99.2621708,127.173073 C97.8097477,126.93352 97.2652992,126.847779 96.7216719,126.76489 C95.1330027,126.529757 94.5918141,126.454056 94.0514507,126.381204 C92.6022003,126.191738 92.0652674,126.125773 91.5291957,126.062706 C89.9871949,125.888333 89.4515052,125.83229 88.9168102,125.779184 C87.4175884,125.637105 86.8890123,125.591532 86.3614183,125.548887 C84.8693577,125.435206 84.3330379,125.399094 83.7977842,125.366076 C82.2839107,125.280046 81.74204,125.25429 81.2012627,125.231762 C79.7852599,125.179312 79.2528957,125.164469 78.7216976,125.15284 C77.6301001,125.134605 77.0576427,125.127731 76.6271871,125.125145 L76.325078,125.123899 L76.1829434,125.123672 C73.858253,125.136506 72.5931069,125.168025 71.3293662,125.220007 L70.1946514,125.272502 C69.6722842,125.29936 69.1512806,125.329882 68.6316054,125.364101 C67.11587,125.473104 66.6085253,125.515385 66.1024665,125.560894 C64.7265739,125.692193 64.206543,125.747657 63.6879056,125.806684 C62.2305293,125.981581 61.7198978,126.049036 61.2106443,126.119968 C59.7647375,126.330666 59.2696156,126.408973 58.7758454,126.49062 C57.3596615,126.733999 56.8615505,126.825991 56.3648802,126.921474 C54.8924969,127.215006 54.391506,127.321803 53.8920528,127.4322 C52.5772729,127.731252 52.0830356,127.850249 51.5903885,127.972928 C50.1447121,128.343977 49.6624951,128.474878 49.1817759,128.609302 L48.8177198,128.714116 C47.6764831,129.043319 47.2348086,129.177385 46.7944097,129.314537 C45.50614,129.725032 45.0277459,129.884649 44.5509887,130.048053 C43.1048897,130.556474 42.6362051,130.729242 42.1690757,130.905654 C40.844326,131.416887 40.3679773,131.608785 39.8933275,131.8047 C38.6216194,132.340124 38.1534442,132.545322 37.6870117,132.754556 C36.3187636,133.381507 35.8569306,133.601963 35.3967965,133.826429 C34.160169,134.440758 33.7052257,134.675297 33.2520457,134.913974 C31.9514684,135.612194 31.5064729,135.860192 31.0632114,136.112242 C29.5379375,136.997021 28.8663652,137.405309 28.1992373,137.823921 C24.4593781,140.409519 22.8991495,141.498221 22.2014496,141.992394 L22.1927113,141.997427 L22.9535938,140.437514 C26.711477,132.784944 30.8473829,125.352473 35.3368875,118.164633 L36.3043275,116.628135 L36.9773285,115.573613 L39.0808717,112.349652 L40.165335,110.726496 C40.6156261,110.061989 40.9706232,109.540817 41.3275299,109.021059 C42.5045627,107.306963 43.7023194,105.608227 44.9073532,103.94324 L45.7007245,102.853225 L48.0084306,99.7503995 L50.3697812,96.6750218 L52.8068795,93.6006363 L55.2022248,90.6719557 L57.3856274,88.0808234 C103.801614,33.976656 172.03192,0 248.197031,0 Z" id="形状" fill="#009191"></path>
        </g>
    </g>
</svg>