<svg version="1.1" viewBox="0.0 0.0 710.0 100.0" fill="none" stroke="none" stroke-linecap="square" stroke-miterlimit="10" xmlns:xlink="http://www.w3.org/1999/xlink" xmlns="http://www.w3.org/2000/svg"><clipPath id="p.0"><path d="m0 0l710.0 0l0 100.0l-710.0 0l0 -100.0z" clip-rule="nonzero"/></clipPath><g clip-path="url(#p.0)"><path fill="#000000" fill-opacity="0.0" d="m0 0l710.0 0l0 100.0l-710.0 0z" fill-rule="evenodd"/><path fill="#000000" fill-opacity="0.0" d="m0 0l712.0 0l0 100.18898l-712.0 0z" fill-rule="evenodd"/><path fill="#38761d" d="m35.92502 73.0l16.203125 -41.65625l12.65625 0l-16.1875 41.65625l-12.671875 0zm12.953125 -38.65625l-27.546875 -3.0l28.71875 0l-1.171875 3.0zm-2.421875 6.390625l-27.625 -3.0l28.734375 0l-1.109375 3.0zm-2.5 6.40625l-27.609375 -3.0l28.796875 0l-1.1875 3.0zm-2.484375 6.390625l-27.625 -3.0l28.796875 0l-1.171875 3.0zm-2.5 6.40625l-27.609375 -3.0l28.78125 0l-1.171875 3.0zm-2.484375 6.390625l-27.625 -3.0l28.796875 0l-1.171875 3.0zm-2.515625 6.46875l-27.625 -3.0l28.796875 0l-1.171875 3.0zm35.547928 0.203125l13.640625 -35.265625l9.0625 0l4.140625 13.140625l0.390625 0l5.0625 -13.140625l11.140625 0l-13.703125 35.265625l-9.0625 0l-4.0625 -13.203125l-0.265625 0l-5.140625 13.203125l-11.203125 0zm10.328125 -32.265625l-27.625 -3.0l28.734375 0l-1.109375 3.0zm-2.484375 6.40625l-27.625 -3.0l28.796875 0l-1.171875 3.0zm-2.5 6.390625l-27.625 -3.0l28.796875 0l-1.171875 3.0zm-2.484375 6.40625l-27.625 -3.0l28.796875 0l-1.171875 3.0zm-2.5 6.390625l-27.625 -3.0l28.796875 0l-1.171875 3.0zm-2.515625 6.46875l-27.609375 -3.0l28.796875 0l-1.1875 3.0zm53.414978 0.203125l13.640625 -35.265625l22.1875 0l-5.1875 10.0l-9.65625 0l-1.78125 4.53125l8.796875 0l-3.015625 7.9375l-8.796875 0l-4.984375 12.796875l-11.203125 0zm10.390625 -32.265625l-27.609375 -3.0l28.71875 0l-1.109375 3.0zm-2.484375 6.40625l-27.625 -3.0l28.796875 0l-1.171875 3.0zm-2.5 6.390625l-27.609375 -3.0l28.78125 0l-1.171875 3.0zm-2.484375 6.40625l-27.625 -3.0l28.796875 0l-1.171875 3.0zm-2.5 6.390625l-27.625 -3.0l28.796875 0l-1.171875 3.0zm-2.5 6.46875l-27.625 -3.0l28.796875 0l-1.171875 3.0zm41.47203 0.203125l13.640625 -35.265625l23.453125 0l-5.25 10.0l-10.859375 0l-1.78125 4.53125l10.0 0l-2.484375 6.40625l-9.9375 0l-1.765625 4.53125l12.328125 0l-3.8125 9.796875l-23.53125 0zm10.328125 -32.265625l-27.625 -3.0l28.734375 0l-1.109375 3.0zm-2.484375 6.40625l-27.625 -3.0l28.796875 0l-1.171875 3.0zm-2.5 6.390625l-27.625 -3.0l28.796875 0l-1.171875 3.0zm-2.484375 6.40625l-27.625 -3.0l28.796875 0l-1.171875 3.0zm-2.5 6.390625l-27.625 -3.0l28.796875 0l-1.171875 3.0zm-2.515625 6.46875l-27.609375 -3.0l28.796875 0l-1.1875 3.0zm45.882812 0.203125l13.640625 -35.265625l16.921875 0q3.734375 0 5.59375 1.140625q1.859375 1.125 2.328125 3.125q0.484375 2.0 -0.0625 4.53125q-0.421875 2.0 -1.59375 4.875q-1.171875 2.859375 -3.25 5.5625q-2.078125 2.703125 -5.28125 4.296875l1.296875 11.734375l-12.453125 0l-0.34375 -10.265625l-1.609375 0l-3.984375 10.265625l-11.203125 0zm10.328125 -32.265625l-27.625 -3.0l28.734375 0l-1.109375 3.0zm-2.484375 6.40625l-27.625 -3.0l28.796875 0l-1.171875 3.0zm10.890625 6.46875l2.125 0q1.328125 0 2.375 -0.359375q1.046875 -0.375 1.515625 -1.640625l0.890625 -2.34375q0.03125 -0.125 0.078125 -0.21875q0.0625 -0.109375 0.078125 -0.171875q0.203125 -0.9375 -0.71875 -1.171875q-0.921875 -0.234375 -2.515625 -0.234375l-1.46875 0l-2.359375 6.140625zm-13.390625 -0.078125l-27.625 -3.0l28.796875 0l-1.171875 3.0zm-2.484375 6.40625l-27.625 -3.0l28.796875 0l-1.171875 3.0zm-2.5 6.390625l-27.625 -3.0l28.796875 0l-1.171875 3.0zm-2.515625 6.46875l-27.609375 -3.0l28.796875 0l-1.1875 3.0zm50.215485 0.203125l13.640625 -35.265625l23.453125 0l-5.25 10.0l-10.859375 0l-1.78125 4.53125l10.0 0l-2.484375 6.40625l-9.9375 0l-1.765625 4.53125l12.328125 0l-3.8125 9.796875l-23.53125 0zm10.328125 -32.265625l-27.625 -3.0l28.734375 0l-1.109375 3.0zm-2.484375 6.40625l-27.625 -3.0l28.796875 0l-1.171875 3.0zm-2.5 6.390625l-27.625 -3.0l28.796875 0l-1.171875 3.0zm-2.484375 6.40625l-27.625 -3.0l28.796875 0l-1.171875 3.0zm-2.5 6.390625l-27.625 -3.0l28.796875 0l-1.171875 3.0zm-2.515625 6.46875l-27.609375 -3.0l28.796875 0l-1.1875 3.0zm45.882812 0.203125l13.640625 -35.265625l9.0625 0l4.140625 13.140625l0.390625 0l5.0625 -13.140625l11.140625 0l-13.703125 35.265625l-9.0625 0l-4.0625 -13.203125l-0.265625 0l-5.140625 13.203125l-11.203125 0zm10.328125 -32.265625l-27.625 -3.0l28.734375 0l-1.109375 3.0zm-2.484375 6.40625l-27.625 -3.0l28.796875 0l-1.171875 3.0zm-2.5 6.390625l-27.625 -3.0l28.796875 0l-1.171875 3.0zm-2.484375 6.40625l-27.625 -3.0l28.796875 0l-1.171875 3.0zm-2.5 6.390625l-27.625 -3.0l28.796875 0l-1.171875 3.0zm-2.515625 6.46875l-27.609375 -3.0l28.796875 0l-1.1875 3.0zm66.3056 1.0q-7.328125 0 -9.671875 -2.796875q-2.328125 -2.796875 -1.140625 -8.390625q0.328125 -1.546875 0.953125 -3.375q0.625 -1.828125 1.375 -3.828125q2.375 -6.140625 5.234375 -10.203125q2.859375 -4.0625 7.0625 -6.09375q4.203125 -2.03125 10.46875 -2.03125q1.265625 0 3.0 0.140625q1.734375 0.125 3.265625 0.453125q1.53125 0.328125 2.296875 0.859375l-5.375 9.265625q-1.6875 -0.53125 -3.421875 -0.71875q-1.71875 -0.203125 -2.71875 -0.203125q-2.34375 0 -3.59375 0.4375q-1.25 0.421875 -1.8125 1.828125l-5.625 14.265625q1.0 0.265625 1.859375 0.296875q0.859375 0.03125 1.71875 0.03125q2.140625 0 4.515625 -0.390625q2.390625 -0.40625 4.40625 -1.078125l-3.203125 10.0q-2.25 0.875 -4.5625 1.203125q-2.296875 0.328125 -5.03125 0.328125zm-0.859375 -33.859375l-19.984375 -2.203125l23.1875 0q-1.796875 0.9375 -3.203125 2.203125zm-5.671875 6.859375l-24.609375 -2.65625l26.328125 0q-0.40625 0.65625 -0.84375 1.296875q-0.4375 0.640625 -0.875 1.359375zm-3.1875 6.546875l-25.453125 -2.8125l26.671875 0l-1.21875 2.8125zm-2.359375 6.390625l-25.65625 -2.796875l26.609375 0q-0.234375 0.734375 -0.484375 1.4375q-0.234375 0.6875 -0.46875 1.359375zm-1.15625 6.40625l-25.578125 -2.8125l25.921875 0q-0.15625 0.734375 -0.21875 1.4375q-0.046875 0.703125 -0.125 1.375zm1.578125 6.125l-22.734375 -2.46875l21.53125 0q0.171875 0.671875 0.46875 1.3125q0.296875 0.625 0.734375 1.15625zm40.09256 0.734375l13.640625 -35.265625l23.453125 0l-5.25 10.0l-10.859375 0l-1.78125 4.53125l10.0 0l-2.484375 6.40625l-9.9375 0l-1.765625 4.53125l12.328125 0l-3.8125 9.796875l-23.53125 0zm10.328125 -32.265625l-27.625 -3.0l28.734375 0l-1.109375 3.0zm-2.484375 6.40625l-27.625 -3.0l28.796875 0l-1.171875 3.0zm-2.5 6.390625l-27.625 -3.0l28.796875 0l-1.171875 3.0zm-2.484375 6.40625l-27.625 -3.0l28.796875 0l-1.171875 3.0zm-2.5 6.390625l-27.625 -3.0l28.796875 0l-1.171875 3.0zm-2.515625 6.46875l-27.609375 -3.0l28.796875 0l-1.1875 3.0zm74.93283 1.203125q-8.671875 0 -11.453125 -3.359375q-2.78125 -3.375 -1.375 -9.96875q0.390625 -1.875 1.09375 -3.96875q0.71875 -2.09375 1.640625 -4.5q2.8125 -7.265625 6.234375 -12.09375q3.421875 -4.84375 8.40625 -7.296875q5.0 -2.46875 12.390625 -2.46875q1.46875 0 3.421875 0.203125q1.96875 0.1875 3.78125 0.59375q1.8125 0.40625 2.703125 0.9375l-5.890625 10.1875q-1.78125 -0.453125 -3.859375 -0.6875q-2.078125 -0.234375 -3.40625 -0.234375q-3.078125 0 -4.8125 0.59375q-1.71875 0.59375 -2.515625 2.734375l-6.765625 17.46875q1.265625 0.265625 2.46875 0.40625q1.203125 0.125 2.34375 0.125q2.53125 0 5.25 -0.4375q2.734375 -0.4375 4.953125 -1.171875l-3.4375 11.203125q-2.53125 0.9375 -5.1875 1.328125q-2.65625 0.40625 -5.984375 0.40625zm-0.265625 -40.453125l-19.921875 -2.203125l23.390625 0q-0.90625 0.46875 -1.75 1.0q-0.84375 0.53125 -1.71875 1.203125zm-6.125 6.859375l-24.359375 -2.671875l26.265625 0q-0.46875 0.671875 -0.953125 1.3125q-0.46875 0.625 -0.953125 1.359375zm-3.578125 6.46875l-25.265625 -2.734375l26.65625 0l-1.390625 2.734375zm-2.640625 6.46875l-25.59375 -2.8125l26.671875 0l-0.5 1.34375q-0.140625 0.390625 -0.296875 0.765625q-0.140625 0.359375 -0.28125 0.703125zm-2.03125 6.390625l-25.640625 -2.796875l26.453125 0q-0.515625 1.46875 -0.8125 2.796875zm-0.828125 6.40625l-25.3125 -2.8125l25.46875 0q-0.03125 0.734375 -0.09375 1.4375q-0.046875 0.703125 -0.0625 1.375zm2.25 6.125l-22.53125 -2.46875l21.0625 0q0.53125 1.53125 1.46875 2.46875zm43.026306 0.734375l13.640625 -35.265625l11.734375 0l-9.890625 25.46875l10.0 0l-3.8125 9.796875l-21.671875 0zm10.328125 -32.265625l-27.625 -3.0l28.734375 0l-1.109375 3.0zm-2.484375 6.40625l-27.625 -3.0l28.796875 0l-1.171875 3.0zm-2.5 6.390625l-27.625 -3.0l28.796875 0l-1.171875 3.0zm-2.484375 6.40625l-27.625 -3.0l28.796875 0l-1.171875 3.0zm-2.5 6.390625l-27.625 -3.0l28.796875 0l-1.171875 3.0zm-2.515625 6.46875l-27.609375 -3.0l28.796875 0l-1.1875 3.0zm39.95038 0.203125l13.640625 -35.265625l11.734375 0l-13.703125 35.265625l-11.671875 0zm10.328125 -32.265625l-27.625 -3.0l28.734375 0l-1.109375 3.0zm-2.484375 6.40625l-27.625 -3.0l28.796875 0l-1.171875 3.0zm-2.5 6.390625l-27.625 -3.0l28.796875 0l-1.171875 3.0zm-2.484375 6.40625l-27.625 -3.0l28.796875 0l-1.171875 3.0zm-2.5 6.390625l-27.625 -3.0l28.796875 0l-1.171875 3.0zm-2.515625 6.46875l-27.609375 -3.0l28.796875 0l-1.1875 3.0zm34.75122 0.203125l13.640625 -35.265625l23.453125 0l-5.25 10.0l-10.859375 0l-1.78125 4.53125l10.0 0l-2.484375 6.40625l-9.9375 0l-1.765625 4.53125l12.328125 0l-3.8125 9.796875l-23.53125 0zm10.328125 -32.265625l-27.625 -3.0l28.734375 0l-1.109375 3.0zm-2.484375 6.40625l-27.625 -3.0l28.796875 0l-1.171875 3.0zm-2.5 6.390625l-27.625 -3.0l28.796875 0l-1.171875 3.0zm-2.484375 6.40625l-27.625 -3.0l28.796875 0l-1.171875 3.0zm-2.5 6.390625l-27.625 -3.0l28.796875 0l-1.171875 3.0zm-2.515625 6.46875l-27.609375 -3.0l28.796875 0l-1.1875 3.0zm45.882812 0.203125l13.640625 -35.265625l9.0625 0l4.140625 13.140625l0.390625 0l5.0625 -13.140625l11.140625 0l-13.703125 35.265625l-9.0625 0l-4.0625 -13.203125l-0.265625 0l-5.140625 13.203125l-11.203125 0zm10.328125 -32.265625l-27.625 -3.0l28.734375 0l-1.109375 3.0zm-2.484375 6.40625l-27.625 -3.0l28.796875 0l-1.171875 3.0zm-2.5 6.390625l-27.625 -3.0l28.796875 0l-1.171875 3.0zm-2.484375 6.40625l-27.625 -3.0l28.796875 0l-1.171875 3.0zm-2.5 6.390625l-27.625 -3.0l28.796875 0l-1.171875 3.0zm-2.515625 6.46875l-27.609375 -3.0l28.796875 0l-1.1875 3.0zm58.289978 0.203125l9.765625 -25.265625l-7.390625 0l3.921875 -10.0l26.328125 0l-3.921875 10.0l-7.203125 0l-9.765625 25.265625l-11.734375 0zm2.984375 -32.265625l-27.625 -3.0l28.734375 0l-1.109375 3.0zm-2.484375 6.40625l-27.625 -3.0l28.796875 0l-1.171875 3.0zm5.03125 6.390625l-27.625 -3.0l28.796875 0l-1.171875 3.0zm-2.484375 6.40625l-27.625 -3.0l28.796875 0l-1.171875 3.0zm-2.5 6.390625l-27.625 -3.0l28.796875 0l-1.171875 3.0zm-2.5 6.46875l-27.625 -3.0l28.796875 0l-1.171875 3.0z" fill-rule="nonzero"/></g></svg>