<svg version="1.1" viewBox="0.0 0.0 428.37007874015745 100.0" fill="none" stroke="none" stroke-linecap="square" stroke-miterlimit="10" xmlns:xlink="http://www.w3.org/1999/xlink" xmlns="http://www.w3.org/2000/svg"><clipPath id="p.0"><path d="m0 0l428.3701 0l0 100.0l-428.3701 0l0 -100.0z" clip-rule="nonzero"/></clipPath><g clip-path="url(#p.0)"><path fill="#000000" fill-opacity="0.0" d="m0 0l428.3701 0l0 100.0l-428.3701 0z" fill-rule="evenodd"/><path fill="#000000" fill-opacity="0.0" d="m0 0l431.65353 0l0 98.58268l-431.65353 0z" fill-rule="evenodd"/><path fill="#38761d" d="m35.393753 71.72l15.859375 -40.828125l12.40625 0l-15.859375 40.828125l-12.40625 0zm12.6875 -37.890625l-27.015625 -2.9375l28.15625 0l-1.140625 2.9375zm-2.375 6.265625l-27.078125 -2.9375l28.15625 0l-1.078125 2.9375zm-2.4375 6.28125l-27.078125 -2.9375l28.21875 0l-1.140625 2.9375zm-2.4375 6.265625l-27.09375 -2.9375l28.21875 0l-1.125 2.9375zm-2.453125 6.28125l-27.078125 -2.953125l28.21875 0l-1.140625 2.953125zm-2.4375 6.265625l-27.078125 -2.9375l28.21875 0l-1.140625 2.9375zm-2.46875 6.328125l-27.0625 -2.9375l28.21875 0l-1.15625 2.9375zm34.847244 0.203125l13.359375 -34.5625l8.875 0l4.0625 12.875l0.390625 0l4.953125 -12.875l10.90625 0l-13.40625 34.5625l-8.890625 0l-3.984375 -12.9375l-0.25 0l-5.046875 12.9375l-10.96875 0zm10.109375 -31.625l-27.0625 -2.9375l28.15625 0l-1.09375 2.9375zm-2.4375 6.28125l-27.0625 -2.9375l28.21875 0l-1.15625 2.9375zm-2.4375 6.265625l-27.09375 -2.9375l28.234375 0l-1.140625 2.9375zm-2.453125 6.28125l-27.078125 -2.953125l28.234375 0l-1.15625 2.953125zm-2.4375 6.265625l-27.078125 -2.9375l28.21875 0l-1.140625 2.9375zm-2.453125 6.328125l-27.078125 -2.9375l28.21875 0l-1.140625 2.9375zm52.346695 0.203125l13.359375 -34.5625l21.75 0l-5.078125 9.796875l-9.484375 0l-1.734375 4.453125l8.625 0l-2.953125 7.765625l-8.625 0l-4.890625 12.546875l-10.96875 0zm10.1875 -31.625l-27.078125 -2.9375l28.15625 0l-1.078125 2.9375zm-2.453125 6.28125l-27.0625 -2.9375l28.21875 0l-1.15625 2.9375zm-2.4375 6.265625l-27.078125 -2.9375l28.21875 0l-1.140625 2.9375zm-2.453125 6.28125l-27.0625 -2.953125l28.21875 0l-1.15625 2.953125zm-2.4375 6.265625l-27.078125 -2.9375l28.234375 0l-1.15625 2.9375zm-2.453125 6.328125l-27.078125 -2.9375l28.234375 0l-1.15625 2.9375zm40.655792 0.203125l13.359375 -34.5625l22.984375 0l-5.140625 9.796875l-10.65625 0l-1.734375 4.453125l9.796875 0l-2.4375 6.265625l-9.734375 0l-1.71875 4.4375l12.09375 0l-3.75 9.609375l-23.0625 0zm10.109375 -31.625l-27.0625 -2.9375l28.15625 0l-1.09375 2.9375zm-2.4375 6.28125l-27.0625 -2.9375l28.21875 0l-1.15625 2.9375zm-2.4375 6.265625l-27.09375 -2.9375l28.234375 0l-1.140625 2.9375zm-2.453125 6.28125l-27.078125 -2.953125l28.234375 0l-1.15625 2.953125zm-2.4375 6.265625l-27.078125 -2.9375l28.21875 0l-1.140625 2.9375zm-2.453125 6.328125l-27.078125 -2.9375l28.21875 0l-1.140625 2.9375zm44.96463 0.203125l13.359375 -34.5625l16.59375 0q3.65625 0 5.46875 1.109375q1.828125 1.109375 2.296875 3.078125q0.46875 1.953125 -0.0625 4.4375q-0.421875 1.96875 -1.578125 4.78125q-1.140625 2.796875 -3.171875 5.453125q-2.03125 2.640625 -5.1875 4.203125l1.28125 11.5l-12.21875 0l-0.328125 -10.0625l-1.578125 0l-3.90625 10.0625l-10.96875 0zm10.109375 -31.625l-27.0625 -2.9375l28.15625 0l-1.09375 2.9375zm-2.4375 6.28125l-27.0625 -2.9375l28.21875 0l-1.15625 2.9375zm10.6875 6.328125l2.078125 0q1.3125 0 2.328125 -0.359375q1.015625 -0.359375 1.484375 -1.59375l0.875 -2.28125q0.03125 -0.140625 0.078125 -0.234375q0.0625 -0.09375 0.078125 -0.171875q0.1875 -0.90625 -0.71875 -1.125q-0.890625 -0.234375 -2.46875 -0.234375l-1.4375 0l-2.296875 6.0zm-13.125 -0.0625l-27.09375 -2.9375l28.234375 0l-1.140625 2.9375zm-2.453125 6.28125l-27.078125 -2.953125l28.234375 0l-1.15625 2.953125zm-2.4375 6.265625l-27.078125 -2.9375l28.21875 0l-1.140625 2.9375zm-2.453125 6.328125l-27.078125 -2.9375l28.21875 0l-1.140625 2.9375zm49.210953 0.203125l13.359375 -34.5625l22.984375 0l-5.140625 9.796875l-10.65625 0l-1.734375 4.453125l9.796875 0l-2.4375 6.265625l-9.734375 0l-1.71875 4.4375l12.09375 0l-3.75 9.609375l-23.0625 0zm10.109375 -31.625l-27.0625 -2.9375l28.15625 0l-1.09375 2.9375zm-2.4375 6.28125l-27.0625 -2.9375l28.21875 0l-1.15625 2.9375zm-2.4375 6.265625l-27.09375 -2.9375l28.234375 0l-1.140625 2.9375zm-2.453125 6.28125l-27.078125 -2.953125l28.234375 0l-1.15625 2.953125zm-2.4375 6.265625l-27.078125 -2.9375l28.21875 0l-1.140625 2.9375zm-2.453125 6.328125l-27.078125 -2.9375l28.21875 0l-1.140625 2.9375zm44.96463 0.203125l13.359375 -34.5625l8.875 0l4.0625 12.875l0.390625 0l4.953125 -12.875l10.90625 0l-13.40625 34.5625l-8.890625 0l-3.984375 -12.9375l-0.25 0l-5.046875 12.9375l-10.96875 0zm10.109375 -31.625l-27.0625 -2.9375l28.15625 0l-1.09375 2.9375zm-2.4375 6.28125l-27.0625 -2.9375l28.21875 0l-1.15625 2.9375zm-2.4375 6.265625l-27.09375 -2.9375l28.234375 0l-1.140625 2.9375zm-2.453125 6.28125l-27.078125 -2.953125l28.234375 0l-1.15625 2.953125zm-2.4375 6.265625l-27.078125 -2.9375l28.21875 0l-1.140625 2.9375zm-2.453125 6.328125l-27.078125 -2.9375l28.21875 0l-1.140625 2.9375zm64.97171 0.984375q-7.1875 0 -9.46875 -2.734375q-2.28125 -2.75 -1.109375 -8.234375q0.3125 -1.5 0.921875 -3.296875q0.609375 -1.796875 1.359375 -3.765625q2.3125 -6.0 5.109375 -9.984375q2.8125 -4.0 6.921875 -5.984375q4.125 -2.0 10.265625 -2.0q1.234375 0 2.9375 0.140625q1.703125 0.125 3.203125 0.453125q1.515625 0.328125 2.25 0.84375l-5.265625 9.09375q-1.65625 -0.53125 -3.359375 -0.71875q-1.6875 -0.203125 -2.65625 -0.203125q-2.296875 0 -3.53125 0.421875q-1.21875 0.421875 -1.78125 1.796875l-5.515625 13.984375q0.984375 0.265625 1.828125 0.296875q0.84375 0.03125 1.6875 0.03125q2.09375 0 4.421875 -0.390625q2.34375 -0.390625 4.3125 -1.046875l-3.109375 9.796875q-2.21875 0.84375 -4.484375 1.171875q-2.25 0.328125 -4.9375 0.328125zm-0.84375 -33.1875l-19.59375 -2.15625l22.734375 0q-1.75 0.921875 -3.140625 2.15625zm-5.546875 6.734375l-24.125 -2.609375l25.796875 0q-0.40625 0.640625 -0.828125 1.265625q-0.421875 0.625 -0.84375 1.34375zm-3.125 6.40625l-24.96875 -2.75l26.140625 0l-1.171875 2.75zm-2.3125 6.265625l-25.15625 -2.75l26.0625 0q-0.21875 0.71875 -0.453125 1.40625q-0.234375 0.6875 -0.453125 1.34375zm-1.125 6.265625l-25.09375 -2.734375l25.40625 0q-0.15625 0.71875 -0.203125 1.40625q-0.046875 0.6875 -0.109375 1.328125zm1.53125 6.015625l-22.28125 -2.421875l21.09375 0q0.1875 0.65625 0.46875 1.28125q0.296875 0.625 0.71875 1.140625zm39.300293 0.71875l13.359375 -34.5625l22.984375 0l-5.140625 9.796875l-10.65625 0l-1.734375 4.453125l9.796875 0l-2.4375 6.265625l-9.734375 0l-1.71875 4.4375l12.09375 0l-3.75 9.609375l-23.0625 0zm10.109375 -31.625l-27.0625 -2.9375l28.15625 0l-1.09375 2.9375zm-2.4375 6.28125l-27.0625 -2.9375l28.21875 0l-1.15625 2.9375zm-2.4375 6.265625l-27.09375 -2.9375l28.234375 0l-1.140625 2.9375zm-2.453125 6.28125l-27.078125 -2.953125l28.234375 0l-1.15625 2.953125zm-2.4375 6.265625l-27.078125 -2.9375l28.21875 0l-1.140625 2.9375zm-2.453125 6.328125l-27.078125 -2.9375l28.21875 0l-1.140625 2.9375z" fill-rule="nonzero"/></g></svg>